<svg width="80" height="80" viewBox="0 0 80 80" fill="none" xmlns="http://www.w3.org/2000/svg">
<path d="M75.2217 46.1869C77.5275 46.592 79.749 45.0499 79.9078 42.7141C80.2466 37.7321 79.6504 32.7177 78.1364 27.933C76.195 21.7975 72.8019 16.2209 68.2452 11.6767C63.6884 7.13245 58.1024 3.75478 51.9615 1.83035C47.1727 0.32964 42.1566 -0.25276 37.1756 0.0998322C34.8402 0.265143 33.3043 2.49083 33.7157 4.79558C34.1271 7.10033 36.3322 8.60486 38.6713 8.50618C42.3005 8.35307 45.9398 8.82798 49.4262 9.92057C54.2655 11.4371 58.6675 14.0989 62.2585 17.6799C65.8494 21.261 68.5234 25.6556 70.0533 30.4907C71.1555 33.9741 71.6404 37.6121 71.4974 41.2417C71.4052 43.581 72.9158 45.7819 75.2217 46.1869Z" fill="#C4C4C4"/>
<path d="M75.7609 40C78.1021 40 80.0233 41.9032 79.7756 44.2313C79.0932 50.6465 76.8662 56.8239 73.2588 62.2228C68.8635 68.8008 62.6164 73.9277 55.3073 76.9552C47.9983 79.9827 39.9556 80.7748 32.1964 79.2314C24.4371 77.688 17.3098 73.8784 11.7157 68.2843C6.12162 62.6902 2.31199 55.5628 0.768586 47.8036C-0.77482 40.0444 0.017316 32.0017 3.04482 24.6926C6.07233 17.3836 11.1992 11.1365 17.7772 6.74121C23.1761 3.13376 29.3536 0.90681 35.7687 0.224395C38.0968 -0.0232515 40 1.8979 40 4.23908C40 6.58026 38.0936 8.44886 35.7736 8.76276C31.0383 9.40345 26.4912 11.1153 22.4874 13.7905C17.3037 17.2542 13.2634 22.1772 10.8776 27.9371C8.49181 33.697 7.86757 40.035 9.08385 46.1496C10.3001 52.2642 13.3023 57.8809 17.7107 62.2893C22.1191 66.6977 27.7358 69.6999 33.8504 70.9162C39.965 72.1324 46.303 71.5082 52.0629 69.1224C57.8227 66.7366 62.7458 62.6963 66.2094 57.5126C68.8847 53.5088 70.5965 48.9617 71.2372 44.2264C71.5511 41.9064 73.4197 40 75.7609 40Z" fill="#FFC700"/>
</svg>
